<?xml version="1.0" encoding="utf-8"?>
<!-- Generator: Adobe Illustrator 26.0.2, SVG Export Plug-In . SVG Version: 6.00 Build 0)  -->
<svg version="1.1" id="Layer_1" xmlns="http://www.w3.org/2000/svg" xmlns:xlink="http://www.w3.org/1999/xlink" x="0px" y="0px"
	 viewBox="0 0 28 28" style="enable-background:new 0 0 28 28;" xml:space="preserve">
<style type="text/css">
	.st0{fill:#020203;}
</style>
<path id="_xF8FF_" class="st0" d="M14,7.8c0.9,0,2.1-0.7,2.8-1.6c0.7-0.8,1.1-1.9,1.1-3c0-0.1,0-0.3,0-0.4c-1,0-2.2,0.7-3,1.6
	c-0.6,0.7-1.1,1.8-1.1,2.9c0,0.1,0,0.3,0,0.3C13.8,7.8,13.9,7.8,14,7.8z M10.8,24.1c1.2,0,1.8-0.9,3.5-0.9c1.6,0,2,0.9,3.3,0.9
	c1.3,0,2.3-1.3,3.2-2.6c1-1.4,1.3-2.9,1.4-3c-0.1,0-2.8-1.1-2.8-4.2c0-2.7,2.1-3.9,2.2-4c-1.3-2-3.5-2.1-4-2.1c-1.6,0-2.8,1-3.6,1
	c-0.9,0-2-0.9-3.3-0.9c-2.6,0-5.1,2.2-5.1,6.3c0,2.6,1,5.2,2.1,7C8.6,22.9,9.5,24.1,10.8,24.1z"/>
</svg>
